HIERARCHY
ROOT Hips
{
	OFFSET 0 0 0
	CHANNELS 6 Xposition Yposition Zposition Yrotation Xrotation Zrotation
	JOINT Spine
	{
		OFFSET -0 8.37147 -2.66841
		CHANNELS 3 Yrotation Xrotation Zrotation
		JOINT Spine1
		{
			OFFSET -0 8.81736 0
			CHANNELS 3 Yrotation Xrotation Zrotation
			JOINT Spine2
			{
				OFFSET -0 8.81736 0
				CHANNELS 3 Yrotation Xrotation Zrotation
				JOINT Spine3
				{
					OFFSET -0 8.81736 0
					CHANNELS 3 Yrotation Xrotation Zrotation
					JOINT Neck
					{
						OFFSET -0 20.2165 3.66841
						CHANNELS 3 Yrotation Xrotation Zrotation
						JOINT Head
						{
							OFFSET -0 10.4643 0
							CHANNELS 3 Yrotation Xrotation Zrotation
							End Site
							{
								OFFSET 0 15 0
							}
						}
					}
					JOINT LeftShoulder
					{
						OFFSET 1.74406 7.24 3.48811
						CHANNELS 3 Yrotation Xrotation Zrotation
						JOINT LeftArm
						{
							OFFSET 15.166 0 0
							CHANNELS 3 Yrotation Xrotation Zrotation
							JOINT LeftForeArm
							{
								OFFSET 25.1836 0 0
								CHANNELS 3 Yrotation Xrotation Zrotation
								JOINT LeftHand
								{
									OFFSET 23.8595 0 0
									CHANNELS 3 Yrotation Xrotation Zrotation
									End Site
									{
										OFFSET 15 0 0
									}
								}
							}
						}
					}
					JOINT RightShoulder
					{
						OFFSET -1.74406 7.24 3.48811
						CHANNELS 3 Yrotation Xrotation Zrotation
						JOINT RightArm
						{
							OFFSET -15.166 0 0
							CHANNELS 3 Yrotation Xrotation Zrotation
							JOINT RightForeArm
							{
								OFFSET -25.1836 0 0
								CHANNELS 3 Yrotation Xrotation Zrotation
								JOINT RightHand
								{
									OFFSET -23.8595 0 0
									CHANNELS 3 Yrotation Xrotation Zrotation
									End Site
									{
										OFFSET -15 0 0
									}
								}
							}
						}
					}
				}
			}
		}
	}
	JOINT LeftUpLeg
	{
		OFFSET 10.4643 -3.48811 2
		CHANNELS 3 Yrotation Xrotation Zrotation
		JOINT LeftLeg
		{
			OFFSET -0 -38.892 2.44168
			CHANNELS 3 Yrotation Xrotation Zrotation
			JOINT LeftFoot
			{
				OFFSET -0 -41.3956 -2.44168
				CHANNELS 3 Yrotation Xrotation Zrotation
				JOINT LeftToeBase
				{
					OFFSET -0 -6.7338 15.6965
					CHANNELS 3 Yrotation Xrotation Zrotation
					End Site
					{
						OFFSET 0 0 5
					}
				}
			}
		}
	}
	JOINT RightUpLeg
	{
		OFFSET -10.4643 -3.48811 2
		CHANNELS 3 Yrotation Xrotation Zrotation
		JOINT RightLeg
		{
			OFFSET -0 -38.892 2.44168
			CHANNELS 3 Yrotation Xrotation Zrotation
			JOINT RightFoot
			{
				OFFSET -0 -41.3956 -2.44168
				CHANNELS 3 Yrotation Xrotation Zrotation
				JOINT RightToeBase
				{
					OFFSET -0 -6.7338 15.6965
					CHANNELS 3 Yrotation Xrotation Zrotation
					End Site
					{
						OFFSET 0 0 5
					}
				}
			}
		}
	}
}
MOTION
Frames: 17
Frame Time: 0.00833333
-82.011169 89.645624 -16.472673 9.946569 -12.806361 0.294680 0.008584 3.170643 -1.597066 -0.695484 3.336852 -1.187197 -0.825319 3.207236 -0.859797 -1.228807 3.246601 -0.452290 -0.694519 0.796715 3.608464 -0.270565 -1.063448 -2.056182 16.816239 17.385684 0.310321 -50.602449 -3.525248 -48.069973 -60.313499 0.874431 1.601953 8.493190 4.160661 -33.521530 -15.885324 7.608940 -7.089939 44.824456 -6.140774 81.758239 53.612132 5.131923 -16.275108 -3.206541 3.020660 33.351453 9.139060 4.246625 -4.909444 0.000000 26.819261 0.000000 5.999015 -14.705345 8.318708 0.000000 -2.005170 0.000000 -50.959717 -19.230375 19.978625 0.000000 42.266089 0.000000 -29.406613 39.932709 -2.164409 0.000000 -10.790171 0.000000
-82.040765 89.620093 -16.478268 9.543708 -12.787914 0.260529 0.029423 3.217878 -1.553730 -0.670170 3.314098 -1.232191 -0.800021 3.203487 -0.899192 -1.227892 3.267542 -0.258026 -0.579869 0.715393 3.450455 -0.221091 -1.039688 -2.007743 16.713047 17.356985 0.246580 -50.458486 -3.522288 -48.405025 -60.264684 0.915544 1.808840 8.558396 3.938265 -33.549073 -15.963048 7.663373 -7.144102 44.922858 -6.196289 81.658157 53.608714 5.069744 -16.401030 -3.323991 3.396376 33.444514 9.238378 4.138092 -4.839155 0.000000 26.999486 0.000000 6.300382 -14.842447 8.105780 0.000000 -1.950517 0.000000 -51.071221 -19.282345 19.892007 0.000000 42.584838 0.000000 -28.136966 40.546779 -1.416824 0.000000 -10.900332 0.000000
-82.060498 89.593799 -16.477481 9.078245 -12.737259 0.253990 0.047954 3.207958 -1.613620 -0.659287 3.261815 -1.188424 -0.824485 3.225215 -0.739427 -1.122902 3.363602 -0.398529 -0.450899 0.552220 3.493995 -0.164552 -0.950054 -2.071965 16.771865 17.279696 0.298388 -50.441238 -3.611000 -48.635148 -60.140814 0.933988 1.911864 8.717754 3.715918 -33.427375 -16.081691 7.653731 -7.116633 45.009693 -6.245925 81.609434 53.579716 4.924822 -16.412147 -3.249662 3.462576 33.298771 9.354854 4.029805 -4.820548 0.000000 27.136215 0.000000 6.663434 -14.983274 8.032066 0.000000 -2.005339 0.000000 -51.187719 -19.418968 19.836714 0.000000 42.973806 0.000000 -26.995315 41.238981 -0.550283 0.000000 -11.059249 0.000000
-82.068298 89.564978 -16.477682 8.606984 -12.728538 0.241903 0.001529 3.191372 -1.651493 -0.703036 3.324854 -1.124249 -0.780367 3.274623 -0.680996 -1.041535 3.251946 -0.447590 -0.267136 0.536634 3.537157 -0.086017 -0.919665 -2.193933 16.868765 17.377412 0.374847 -50.489317 -3.674955 -48.861692 -60.011230 0.970691 2.082359 8.702284 3.377092 -33.283689 -16.065851 7.697171 -7.111086 44.951568 -6.207028 81.608513 53.606379 4.926737 -16.425935 -3.288570 3.396847 33.259018 9.490616 3.958791 -4.783980 0.000000 27.289193 0.000000 7.008468 -15.092929 7.890237 0.000000 -1.995586 0.000000 -51.237273 -19.465670 19.745412 0.000000 43.248065 0.000000 -25.830102 41.771844 -0.035845 0.000000 -11.050335 0.000000
-82.083484 89.531024 -16.483366 8.101285 -12.714286 0.281649 0.070825 3.219744 -1.675913 -0.641360 3.323331 -1.150681 -0.818676 3.286600 -0.700747 -1.120772 3.257784 -0.338851 -0.028115 0.477296 3.515217 0.019168 -0.932123 -2.242475 16.909999 17.332815 0.418366 -50.412583 -3.676663 -49.196022 -59.991684 0.875130 2.305626 8.852943 3.423998 -33.257429 -16.146527 7.764934 -7.112118 45.394632 -6.232496 81.389290 53.581592 4.770133 -16.607452 -3.417634 3.267046 33.277586 9.680165 3.915506 -4.780465 0.000000 27.394711 0.000000 7.338115 -15.198013 7.809111 0.000000 -2.004181 0.000000 -51.114476 -19.554900 19.620726 0.000000 43.578322 0.000000 -24.559340 41.982833 0.756474 0.000000 -10.677190 0.000000
-82.094324 89.510382 -16.492155 7.581878 -12.657577 0.264274 0.093136 3.165808 -1.645864 -0.623886 3.359309 -1.139375 -0.790817 3.252837 -0.732072 -1.122120 3.313525 -0.258656 0.173227 0.423551 3.554575 0.108299 -0.930083 -2.422393 16.765967 17.341055 0.471154 -50.109954 -3.787465 -49.555664 -59.991562 0.928700 2.361698 8.900671 3.487260 -32.988097 -16.098735 7.695315 -7.102632 45.020731 -6.195762 81.471738 53.605917 4.966272 -16.458346 -3.439703 3.518499 33.254578 9.888941 3.823217 -4.721761 0.000000 27.497970 0.000000 7.643843 -15.330657 7.667948 0.000000 -1.922831 0.000000 -51.051159 -19.691379 19.535049 0.000000 43.903804 0.000000 -23.326970 42.549272 1.892070 0.000000 -10.403658 0.000000
-82.083594 89.493195 -16.490826 7.019737 -12.639309 0.282702 0.028474 3.196511 -1.563164 -0.684381 3.375650 -1.154088 -0.748954 3.225506 -0.794465 -1.062562 3.307395 -0.337005 0.449723 0.289198 3.684947 0.227428 -0.826187 -2.512829 16.997645 17.283550 0.566855 -50.111753 -3.784275 -49.747216 -59.921647 0.821658 2.415403 8.989625 3.320192 -32.892689 -16.082347 7.653266 -6.994635 45.177726 -6.139708 81.505704 53.519421 4.810769 -16.624677 -3.284841 3.574709 33.362469 10.191599 3.825262 -4.675857 0.000000 27.540715 0.000000 7.911417 -15.421261 7.557640 0.000000 -1.908561 0.000000 -50.956742 -19.852490 19.321811 0.000000 44.311375 0.000000 -21.551750 43.152563 3.186630 0.000000 -10.149012 0.000000
-82.085956 89.470514 -16.499777 6.414868 -12.627613 0.309892 0.039139 3.211343 -1.642760 -0.674116 3.364409 -1.107751 -0.773276 3.288685 -0.621836 -1.013516 3.308658 -0.376172 0.689026 0.158373 3.574987 0.331340 -0.770329 -2.555264 17.084207 17.359301 0.535363 -50.180768 -3.843209 -49.886655 -59.822711 0.441395 2.633450 8.959951 3.441750 -32.831920 -16.049940 7.604693 -7.098793 45.081191 -6.182599 81.513317 53.542716 4.827333 -16.508156 -3.377934 3.506599 33.062312 10.447571 3.819929 -4.647482 0.000000 27.596695 0.000000 8.206766 -15.561110 7.396125 0.000000 -1.899086 0.000000 -50.740999 -19.996526 19.152053 0.000000 44.616036 0.000000 -20.069303 43.743779 4.601609 0.000000 -10.113040 0.000000
-82.083429 89.455267 -16.493347 5.969737 -12.644743 0.307516 -0.020535 3.221735 -1.611817 -0.725911 3.398293 -1.100374 -0.788576 3.269721 -0.632567 -1.024515 3.369063 -0.404788 0.943557 0.045117 3.590178 0.442750 -0.728308 -2.598586 17.108291 17.376391 0.586609 -50.025981 -3.870259 -50.045025 -59.852583 0.590312 2.700320 9.034016 3.283116 -32.698606 -16.048313 7.611047 -7.075589 45.239104 -6.216253 81.534154 53.480886 4.777263 -16.757056 -3.332136 3.367011 33.295691 10.629339 3.823733 -4.596457 0.000000 27.690181 0.000000 8.466030 -15.693108 7.195774 0.000000 -1.736340 0.000000 -50.878105 -20.016322 18.965013 0.000000 44.917698 0.000000 -18.635792 44.013697 5.380534 0.000000 -9.529941 0.000000
-82.076758 89.433899 -16.497464 5.319811 -12.623648 0.366499 0.019734 3.306136 -1.559439 -0.670134 3.317311 -1.099777 -0.769143 3.308306 -0.720294 -1.053028 3.341912 -0.359604 1.172553 -0.060417 3.617759 0.542533 -0.673197 -2.670741 17.160205 17.349218 0.677016 -50.045964 -3.849067 -50.279820 -59.841396 0.293424 2.853613 9.220554 3.448025 -32.666819 -16.082884 7.659116 -7.035491 45.102975 -6.189620 81.532473 53.587665 4.784352 -16.726152 -3.322387 3.327765 33.224729 10.893879 3.816993 -4.602504 0.000000 27.760247 0.000000 8.807753 -15.835007 6.939037 0.000000 -1.461457 0.000000 -50.622797 -20.284176 18.735766 0.000000 45.284405 0.000000 -17.145506 44.883606 7.520323 0.000000 -9.787488 0.000000
-82.066431 89.418378 -16.480566 4.803368 -12.644533 0.426300 -0.057909 3.301962 -1.629911 -0.727677 3.402999 -1.080171 -0.776390 3.301271 -0.586754 -0.977713 3.343002 -0.482493 1.426544 -0.186541 3.640298 0.655307 -0.643185 -2.749393 17.235781 17.345599 0.795650 -50.145186 -3.800355 -50.447794 -59.802757 0.291344 3.041517 9.231347 3.177481 -32.518045 -16.076566 7.652017 -7.030898 44.863538 -6.211818 81.599459 53.755873 4.685181 -16.677161 -3.300683 3.718157 33.463769 10.988978 3.894048 -4.657429 0.000000 27.734715 0.000000 9.230740 -15.856089 6.861742 0.000000 -1.281140 0.000000 -50.558995 -20.351260 18.462268 0.000000 45.588422 0.000000 -15.593362 44.928261 9.125515 0.000000 -9.082328 0.000000
-82.059509 89.408258 -16.492516 4.298578 -12.601101 0.456494 -0.079597 3.334211 -1.622756 -0.742310 3.357161 -1.093588 -0.739385 3.297868 -0.615497 -0.999336 3.400590 -0.340355 1.680995 -0.279928 3.555394 0.771219 -0.696949 -2.839406 17.124371 17.316510 0.801177 -49.926850 -3.997003 -50.657324 -59.704877 0.034084 2.919468 9.014369 3.195123 -32.471425 -16.120658 7.582530 -7.061712 44.770189 -6.120595 81.576637 53.801417 4.926915 -16.602941 -3.338231 3.219602 33.215288 11.146004 3.868027 -4.688227 0.000000 27.744934 0.000000 9.556735 -15.911029 6.895816 0.000000 -1.195116 0.000000 -50.327289 -20.594121 18.189148 0.000000 45.853412 0.000000 -13.895033 45.483164 11.540219 0.000000 -8.796792 0.000000
-82.051770 89.398737 -16.479832 3.731349 -12.597723 0.553857 -0.099374 3.320599 -1.596167 -0.750300 3.406330 -1.134977 -0.746331 3.346777 -0.721632 -1.038395 3.370380 -0.254483 1.983909 -0.404050 3.529493 0.903570 -0.640520 -2.937180 17.236746 17.279928 0.770399 -50.098852 -3.833931 -50.528789 -59.690527 0.052366 2.865678 9.014636 2.626548 -32.340866 -16.327244 7.702457 -7.054498 44.975088 -6.274995 81.434443 53.760130 4.883906 -16.711395 -3.185849 3.089632 33.392292 11.332426 3.955686 -4.751794 0.000000 27.665486 0.000000 9.898690 -15.941694 6.801056 0.000000 -1.023797 0.000000 -50.117367 -20.743834 17.854065 0.000000 46.099101 0.000000 -12.200904 45.473491 13.982088 0.000000 -8.677298 0.000000
-82.041248 89.403967 -16.468420 3.226262 -12.573785 0.616080 -0.100873 3.267504 -1.668524 -0.765999 3.488818 -1.079400 -0.852057 3.355935 -0.577149 -1.025995 3.354122 -0.468783 2.284280 -0.509406 3.623659 1.036514 -0.602112 -3.068316 17.369529 17.253225 0.862835 -50.178223 -3.838617 -50.509120 -59.611081 -0.055696 2.942033 8.964024 2.817803 -32.575927 -16.195886 7.648094 -6.930464 44.790906 -6.157591 81.572058 53.963093 4.744955 -16.791306 -3.303297 3.338901 33.523159 11.549578 4.009802 -4.765305 0.000000 27.591449 0.000000 10.250705 -15.954150 6.650926 0.000000 -1.361227 0.000000 -49.867188 -20.922801 17.497932 0.000000 46.286370 0.000000 -10.185229 45.377286 16.208611 0.000000 -8.689715 0.000000
-82.023169 89.396741 -16.443799 2.690344 -12.585636 0.712987 -0.160865 3.326610 -1.719496 -0.815125 3.428934 -1.102311 -0.786198 3.293313 -0.567391 -1.026174 3.437705 -0.354156 2.606702 -0.453942 3.534909 1.180492 -0.716829 -3.238759 17.298727 17.281663 0.902272 -50.078986 -3.979332 -50.675665 -59.570584 0.171698 2.875681 8.964534 2.454277 -32.403388 -16.114672 7.580055 -7.062310 44.419849 -6.105396 81.737727 53.981606 5.138094 -16.694883 -3.153888 3.019456 33.592295 11.817027 4.150140 -4.804696 0.000000 27.474655 0.000000 10.491279 -15.949769 6.617168 0.000000 -1.416410 0.000000 -49.719045 -21.061179 17.081513 0.000000 46.449504 0.000000 -8.157738 44.952255 18.385178 0.000000 -8.824868 0.000000
-82.007330 89.396521 -16.417244 2.180713 -12.544406 0.760453 -0.195098 3.263801 -1.617035 -0.838496 3.453768 -1.135964 -0.740339 3.351712 -0.715940 -1.023381 3.416550 -0.303123 2.825268 -0.565266 3.648006 1.278515 -0.653671 -3.444229 17.354319 17.213880 0.993046 -50.282543 -3.918688 -50.690109 -59.560253 -0.002066 2.990196 9.034160 2.794224 -32.461399 -16.285617 7.769355 -7.009101 44.432877 -6.228883 81.613251 54.078057 5.000447 -16.701550 -3.121406 3.173655 33.487577 12.079449 4.195951 -4.802128 0.000000 27.410335 0.000000 10.691227 -15.968541 6.546504 0.000000 -1.486125 0.000000 -49.661913 -21.075414 16.785487 0.000000 46.580647 0.000000 -6.726844 43.654199 19.545732 0.000000 -8.237343 0.000000
-81.996582 89.404913 -16.398608 1.649158 -12.535962 0.811354 -0.145818 3.228352 -1.579499 -0.798935 3.509358 -1.104809 -0.875903 3.382157 -0.686773 -1.110680 3.405142 -0.433981 3.184234 -0.653405 3.713895 1.435596 -0.597921 -3.611664 17.507555 17.252674 1.034635 -50.294622 -4.024505 -50.510623 -59.508425 0.002314 2.841620 8.778555 2.957167 -32.493338 -16.231138 7.751562 -6.946120 44.630700 -6.150076 81.604859 54.169105 4.731941 -16.880703 -3.127818 3.262045 33.548698 12.413310 4.305448 -4.768171 0.000000 27.297075 0.000000 10.869303 -15.967297 6.465509 0.000000 -1.462345 0.000000 -49.535204 -21.231880 16.479964 0.000000 46.698822 0.000000 -5.386647 42.661641 19.851672 0.000000 -8.457415 0.000000
